<?xml version="1.0" encoding="iso-8859-1"?>
<!-- Generator: Adobe Illustrator 18.0.0, SVG Export Plug-In . SVG Version: 6.00 Build 0)  -->
<!DOCTYPE svg PUBLIC "-//W3C//DTD SVG 1.1//EN" "http://www.w3.org/Graphics/SVG/1.1/DTD/svg11.dtd">
<svg version="1.1" id="Capa_1" xmlns="http://www.w3.org/2000/svg" xmlns:xlink="http://www.w3.org/1999/xlink" x="0px" y="0px"
	 viewBox="0 0 459.123 459.123" style="enable-background:new 0 0 459.123 459.123;" xml:space="preserve">
<g>
	<path d="M407.062,39.123h-5.5v-28.5c0-3.038-2.463-5.5-5.5-5.5h-22c-3.037,0-5.5,2.462-5.5,5.5v28.5h-5.5
		c-7.187,0-13.887,2.852-18.869,8.031c-4.981,5.179-7.571,11.986-7.292,19.166l5.312,136.579c0.519,13.31-2.736,26.44-9.41,37.968
		c-1.522,2.629-0.625,5.994,2.004,7.515c0.868,0.502,1.815,0.741,2.751,0.741c1.898,0,3.745-0.984,4.765-2.745
		c7.719-13.332,11.481-28.515,10.883-43.907l-5.312-136.578c-0.162-4.164,1.34-8.11,4.228-11.113
		c1.559-1.621,3.414-2.833,5.441-3.62v311.162c0,32.466,7.816,64.904,22.604,93.806c0.94,1.838,2.832,2.995,4.896,2.995
		s3.956-1.156,4.896-2.995c14.787-28.902,22.604-61.34,22.604-93.806V44.623C412.562,41.585,410.099,39.123,407.062,39.123z
		 M368.562,74.123h33v271h-33V74.123z M368.562,63.123v-13h33v13H368.562z M379.562,16.123h11v23h-11V16.123z M385.062,440.803
		c-10.821-24.652-16.5-51.555-16.5-78.481v-6.199h33v6.199C401.562,389.248,395.883,416.151,385.062,440.803z"/>
	<path d="M86.185,0H61.938C53.46,0,46.562,6.898,46.562,15.377v384.246c0,0.711,0.138,1.416,0.406,2.075l22,54
		c0.844,2.071,2.857,3.425,5.094,3.425s4.25-1.354,5.094-3.425l22-54c0.269-0.659,0.406-1.364,0.406-2.075V15.377
		C101.562,6.898,94.663,0,86.185,0z M61.938,11h24.246c2.413,0,4.377,1.964,4.377,4.377V30h-33V15.377
		C57.562,12.964,59.525,11,61.938,11z M69.775,428.524l-9.534-23.401h27.641l-9.534,23.401H69.775z M57.562,394.123V60h11v334.123
		H57.562z M79.562,394.123V60h11v334.123H79.562z M57.562,49v-8h33v8H57.562z"/>
	<path d="M207.627,5.123H139.33c-3.037,0-5.5,2.462-5.5,5.5v443c0,3.038,2.463,5.5,5.5,5.5h68.297c3.037,0,5.5-2.462,5.5-5.5v-443
		C213.127,7.585,210.664,5.123,207.627,5.123z M202.127,448.123H144.83v-12.291h10.5c3.037,0,5.5-2.462,5.5-5.5s-2.463-5.5-5.5-5.5
		h-10.5v-17.316h10.5c3.037,0,5.5-2.462,5.5-5.5s-2.463-5.5-5.5-5.5h-10.5v-17.315h23.843c3.037,0,5.5-2.462,5.5-5.5
		s-2.463-5.5-5.5-5.5H144.83v-17.316h10.5c3.037,0,5.5-2.462,5.5-5.5s-2.463-5.5-5.5-5.5h-10.5V322.57h10.5
		c3.037,0,5.5-2.462,5.5-5.5s-2.463-5.5-5.5-5.5h-10.5v-17.316h10.5c3.037,0,5.5-2.462,5.5-5.5s-2.463-5.5-5.5-5.5h-10.5v-17.315
		h23.843c3.037,0,5.5-2.462,5.5-5.5s-2.463-5.5-5.5-5.5H144.83v-17.316h10.5c3.037,0,5.5-2.462,5.5-5.5s-2.463-5.5-5.5-5.5h-10.5
		v-17.315h10.5c3.037,0,5.5-2.462,5.5-5.5s-2.463-5.5-5.5-5.5h-10.5v-17.316h10.5c3.037,0,5.5-2.462,5.5-5.5s-2.463-5.5-5.5-5.5
		h-10.5v-17.315h23.843c3.037,0,5.5-2.462,5.5-5.5s-2.463-5.5-5.5-5.5H144.83v-17.316h10.5c3.037,0,5.5-2.462,5.5-5.5
		s-2.463-5.5-5.5-5.5h-10.5V96.045h10.5c3.037,0,5.5-2.462,5.5-5.5s-2.463-5.5-5.5-5.5h-10.5V67.73h10.5c3.037,0,5.5-2.462,5.5-5.5
		s-2.463-5.5-5.5-5.5h-10.5V39.414h23.843c3.037,0,5.5-2.462,5.5-5.5s-2.463-5.5-5.5-5.5H144.83V16.123h57.297V448.123z"/>
	<path d="M309.398,210.123h12.496c3.037,0,5.5-2.462,5.5-5.5s-2.463-5.5-5.5-5.5h-12.496v-61.5c0-1.313-0.47-2.583-1.324-3.579
		l-6.471-7.55c4.407-6.028,6.791-13.278,6.791-20.871c0-17.703-13.026-32.419-29.996-35.071v-8.429h3.5c3.037,0,5.5-2.462,5.5-5.5
		v-47c0-3.038-2.463-5.5-5.5-5.5h-18c-3.037,0-5.5,2.462-5.5,5.5v47c0,3.038,2.463,5.5,5.5,5.5h3.5v8.427
		c-16.974,2.65-30.004,17.367-30.004,35.073c0,7.595,2.386,14.847,6.795,20.876l-6.467,7.545c-0.854,0.997-1.324,2.266-1.324,3.579
		v61.5h-12.504c-3.037,0-5.5,2.462-5.5,5.5s2.463,5.5,5.5,5.5h12.504v167h-3.2v-6.167c0-3.038-2.463-5.5-5.5-5.5s-5.5,2.462-5.5,5.5
		v7.081c-1.486,0.985-2.467,2.67-2.467,4.586s0.981,3.601,2.467,4.586v7.081c0,3.038,2.463,5.5,5.5,5.5s5.5-2.462,5.5-5.5v-6.167
		h3.2v12.5c0,0.97,0.257,1.923,0.744,2.762l17.256,29.718v20.52c0,3.038,2.463,5.5,5.5,5.5s5.5-2.462,5.5-5.5v-243.5h2v6.5
		c0,3.038,2.463,5.5,5.5,5.5s5.5-2.462,5.5-5.5v-6.5h2v243.5c0,3.038,2.463,5.5,5.5,5.5s5.5-2.462,5.5-5.5v-20.52l17.256-29.718
		c0.487-0.839,0.744-1.792,0.744-2.762v-12.5h3.199v6.167c0,3.038,2.463,5.5,5.5,5.5s5.5-2.462,5.5-5.5v-7.081
		c1.486-0.985,2.467-2.67,2.467-4.586s-0.981-3.601-2.467-4.586v-7.081c0-3.038-2.463-5.5-5.5-5.5s-5.5,2.462-5.5,5.5v6.167h-3.199
		V210.123z M269.398,15.123h7v36h-7V15.123z M248.395,105.623c0-13.509,10.99-24.5,24.5-24.5s24.5,10.991,24.5,24.5
		c0,4.336-1.13,8.509-3.244,12.177l-4.077-4.756c-1.497-1.748-3.923-2.377-6.084-1.579c-2.158,0.799-3.592,2.857-3.592,5.158v12.323
		c-2.403,0.776-4.913,1.177-7.504,1.177c-2.587,0-5.095-0.4-7.496-1.174v-12.326c0-2.302-1.434-4.36-3.592-5.158
		c-2.16-0.799-4.587-0.168-6.084,1.579l-4.081,4.762C249.526,114.136,248.395,109.962,248.395,105.623z M247.398,139.658l7-8.167
		v279.707l-7-12.056V139.658z M278.398,199.123v-6.5c0-3.038-2.463-5.5-5.5-5.5s-5.5,2.462-5.5,5.5v6.5h-2v-58.798
		c2.44,0.525,4.942,0.798,7.496,0.798c2.557,0,5.062-0.274,7.504-0.799v58.799H278.398z M298.398,399.142l-7,12.056V131.491l7,8.167
		V399.142z"/>
</g>
<g>
</g>
<g>
</g>
<g>
</g>
<g>
</g>
<g>
</g>
<g>
</g>
<g>
</g>
<g>
</g>
<g>
</g>
<g>
</g>
<g>
</g>
<g>
</g>
<g>
</g>
<g>
</g>
<g>
</g>
</svg>
