<svg width="31px" height="31px" viewBox="0 0 31 31" version="1.1" xmlns="http://www.w3.org/2000/svg" xmlns:xlink="http://www.w3.org/1999/xlink">
    <defs></defs>
    <g id="Page-1" stroke="none" stroke-width="1" fill="none" fill-rule="evenodd">
        <g id="spinner" fill="#EA625F" fill-rule="nonzero">
            <path d="M11,4 C11,1.791 12.791,0 15,0 C17.209,0 19,1.791 19,4 C19,6.209 17.209,8 15,8 C12.791,8 11,6.209 11,4 Z M23.719,16 C23.719,16 23.719,16 23.719,16 C23.719,14.188 25.188,12.719 27,12.719 C28.812,12.719 30.281,14.188 30.281,16 C30.281,16 30.281,16 30.281,16 C30.281,17.812 28.812,19.281 27,19.281 C25.188,19.281 23.719,17.812 23.719,16 Z M20.513,24.485 C20.513,22.844 21.844,21.513 23.485,21.513 C25.126,21.513 26.457,22.844 26.457,24.485 C26.457,26.126 25.126,27.457 23.485,27.457 C21.844,27.457 20.513,26.126 20.513,24.485 Z M12.308,28 C12.308,26.513 13.513,25.308 15,25.308 C16.487,25.308 17.692,26.513 17.692,28 C17.692,29.487 16.487,30.692 15,30.692 C13.513,30.692 12.308,29.487 12.308,28 Z M4.077,24.485 C4.077,23.139 5.169,22.047 6.515,22.047 C7.861,22.047 8.953,23.139 8.953,24.485 C8.953,25.831 7.861,26.923 6.515,26.923 C5.169,26.923 4.077,25.831 4.077,24.485 Z M0.792,16 C0.792,14.78 1.781,13.792 3,13.792 C4.219,13.792 5.208,14.781 5.208,16 C5.208,17.22 4.219,18.208 3,18.208 C1.781,18.208 0.792,17.219 0.792,16 Z M4.515,7.515 C4.515,7.515 4.515,7.515 4.515,7.515 C4.515,6.41 5.41,5.515 6.515,5.515 C7.62,5.515 8.515,6.41 8.515,7.515 C8.515,7.515 8.515,7.515 8.515,7.515 C8.515,8.62 7.62,9.515 6.515,9.515 C5.41,9.515 4.515,8.62 4.515,7.515 Z M27.108,7.515 C27.108,9.516 25.486,11.138 23.485,11.138 C21.484,11.138 19.862,9.516 19.862,7.515 C19.862,5.514 21.484,3.892 23.485,3.892 C25.486,3.892 27.108,5.514 27.108,7.515 Z" id="Shape"></path>
        </g>
    </g>
</svg>